<?xml version="1.0" encoding="UTF-8"?>
<svg version="1.1" viewBox="0 0 1600 1600" width="400" height="400" xmlns="http://www.w3.org/2000/svg">
<path transform="translate(541,598)" d="m0 0h61l51 1 134 1h12l-1 5-10 35-10 34-7 25-9 30-9 31-10 34-11 37-6 21-1 1h-196l-9-3-7-8-4-11v-212l4-10 6-7 5-3z" fill="#844AFC"/>
<path transform="translate(1013,465)" d="m0 0h62l8 4 6 8 2 6v221l-6 9-8 5-3 1-16 1h-79l-135-1h-32l-7-1 3-11 9-30 17-58 20-71 16-55 8-26 20-1z" fill="#FCFCFD"/>
<path transform="translate(703,637)" d="m0 0h2v35l-10 5-25 11-35 15-43 19-6 3 2 2 30 13 26 11 25 11 36 16v34l-7-1-31-15-23-10-28-13-33-15-28-13-10-5-1-4v-23l4-4 27-13 26-12 24-11 41-19 35-16z" fill="#190E2E"/>
<path transform="translate(896,503)" d="m0 0 9 3 23 11 20 9 61 28 26 12 20 9 1 1v28l-5 5-29 13-19 9-18 8-59 27-23 11-7 2-1-33 1-2 28-12 32-14 49-21 13-6-1-2-25-10-23-10-26-11-33-14-14-7-1-2v-31z" fill="#190E2E"/>
</svg>
