<?xml version="1.0" encoding="UTF-8"?>
<svg version="1.1" viewBox="0 0 2000 2000" width="500" height="500" xmlns="http://www.w3.org/2000/svg">
<path transform="translate(508,525)" d="m0 0h543l-1 9-12 39-19 66-16 55-32 111-10 35-17 59-11 38-13 46-8 27-7 26-3 6-8 1h-374l-15-1-13-4-10-7-7-8-5-10-2-10v-440l4-13 8-11 13-9zm352 78-16 6-36 17-63 29-20 9-28 13-67 31-26 12-36 17-24 11-8 5-1 2v58l5 4 29 14 33 15 32 15 33 15 58 27 32 15 33 15 32 15 33 15 5 2h4v-71l-7-6-21-10-32-14-25-11-29-13-42-18-41-18-33-14-9-4h-2l3-3 16-8 29-13 30-13 20-9 50-22 30-13 25-11 32-14 6-5v-65l-2-7z" fill="#844BFB"/>
<path transform="translate(1209,253)" d="m0 0h379l15 2 14 5 8 6 7 7 6 12 1 5v445l-3 9-6 9-9 8-12 6-13 3-13 1h-525l-1-3 14-45 9-34 17-57 13-45 12-41 14-49 15-52 12-41 20-69 15-52 7-24 3-5zm35 76-1 1-1 45v26l2 5 19 9 54 23 35 15 72 31 26 12 23 10 14 6v2l-16 6-51 22-24 10-35 15-31 13-43 18-35 15-8 5-1 1v74l9-1 16-7 41-19 35-16 28-13 68-31 33-15 78-36 16-8 5-3 1-6v-56l-4-4-23-12-33-15-27-13-29-13-60-28-37-17-28-13-36-16-37-17-12-5z" fill="#FEFEFE"/>
<path transform="translate(521,1141)" d="m0 0h63l13 2 9 4 6 4 7 7 5 11 1 5v11l-3 10-5 8-7 8 1 4 10 8 6 9 4 13-1 11-5 12-7 9-9 6-8 3-7 1h-73l-1-1v-143zm30 26-1 2 1 32h34l5-3 4-6 1-3v-10l-5-8-5-4zm0 59-1 2 1 32 4 1h31l7-2 6-7 2-8-1-9-6-7-2-1z" fill="#FEFEFE"/>
<path transform="translate(1229,1140)" d="m0 0h16l14 2 13 5 13 8 9 8 8 11 7 14 4 16v18l-3 15-5 12-8 12-12 12-11 7-11 5-13 3h-22l-16-4-13-7-10-8-7-7-7-11-6-12-3-9-1-5v-21l5-17 8-15 8-10 7-7 14-9 14-5zm4 28-12 3-10 5-8 7-6 10-3 11v20l3 10 7 11 9 8 8 4 13 3h8l17-4 11-7 7-8 7-14 1-5v-18l-4-11-7-10-5-5-6-5-12-4-5-1z" fill="#FEFEFE"/>
<path transform="translate(1349,1141)" d="m0 0h48l15 2 15 5 12 7 13 12 9 14 5 12 2 10v22l-4 16-6 11-7 9-2 3h-2l-1 3-12 9-14 7-11 3-7 1h-53l-1-3v-135zm30 26v93l5 1h16l12-3 8-4 10-9 6-10 4-16-1-14-5-16-6-8-5-5-10-7-6-2z" fill="#FEFEFE"/>
<path transform="translate(890,1140)" d="m0 0h21l12 1v22l-1 3-2 1-29 1-5 5-2 3-1 10 3 8 5 4 5 2 28 2v-11l1-8 3-2h27v23h14l2 4v10l-2 7-2 1-12 1v16l-4 16-7 11-9 8-10 5-12 3h-22l-10-3-10-6-7-6-7-11-4-12v-7l5-13 8-12-1-6-7-11-4-10-1-4v-8l5-15 6-8 5-5 8-6 5-2zm4 87-7 3-6 9-1 2v6l6 9 6 4 4 1h14l7-3 5-5 2-4 1-7v-11l-1-3-2-1z" fill="#844BFB"/>
<path transform="translate(1064,1140)" d="m0 0h10l16 2 14 5 12 8 10 9 8 10-1 5-14 8-5 3-4-1-11-12-11-6-8-2h-17l-13 4-9 6-8 9-4 8-2 10v13l2 11 6 12 5 6 9 6 7 3 5 1h17l13-3 10-6 7-8 2-3 5 1 16 8 4 3-2 5-6 8-9 9-14 9-12 5-15 3h-10l-18-3-12-5-13-9-12-12-8-13-6-18-1-5v-18l4-16 6-14 8-11 9-9 14-9 12-5z" fill="#FEFEFE"/>
<path transform="translate(1506,1141)" d="m0 0h88v25l-1 1h-58l1 33 49 1 1 1v24l-1 1-49 1-1 32h58l1 1v25l-1 1h-88v-145z" fill="#FEFEFE"/>
<path transform="translate(721,1141)" d="m0 0h106v24l-2 2-37 1v34l1 65v20h-32v-120h-36l-1-4v-14z" fill="#FEFEFE"/>
<path transform="translate(665,1141)" d="m0 0h30v145l-1 1h-29l-1-1v-144z" fill="#FEFEFE"/>
</svg>
