<?xml version="1.0" encoding="UTF-8"?>
<svg version="1.1" viewBox="0 0 2000 2000" width="500" height="500" xmlns="http://www.w3.org/2000/svg">
<path transform="translate(0)" d="m0 0h2e3v2e3h-2e3z" fill="#18161E"/>
<path transform="translate(514,524)" d="m0 0h492l48 1-7 27-20 68-19 66-18 62-17 59-40 138-21 72-8 26-1 1h-398l-13-4-11-7-9-11-4-8-2-13v-433l1-11 6-12 7-8 12-8 11-4z" fill="#844DFD"/>
<path transform="translate(1205,253)" d="m0 0h397l11 3 12 7 7 7 7 12 2 12v435l-2 12-6 12-9 9-14 7-16 3-60 1h-64l-416-1 2-9 18-62 22-76 40-138 18-62 46-159 4-12z" fill="#FEFEFE"/>
<path transform="translate(1246,333)" d="m0 0 5 1 65 30 33 15 78 36 33 15 29 13 15 7 34 16 28 13 4 3v60l-8 5-68 31-41 19-26 12-33 15-39 18-33 15-69 32-7 2v-71l10-5 199-85 26-11 13-5-1-3-92-40-35-15-88-38-30-13-2-2z" fill="#18161E"/>
<path transform="translate(859,606)" d="m0 0h3v60l-1 10-10 5-41 18-64 28-29 13-41 18-40 18-16 7-2 2 38 17 73 32 84 37 43 19 5 3 1 30v40l-6-1-29-14-33-15-34-16-33-15-34-16-24-11-28-13-24-11-41-19-28-13-9-5-1-1-1-11v-42l2-6 33-16 26-12 24-11 28-13 24-11 28-13 39-18 31-14 15-7 25-12 33-15z" fill="#18161E"/>
<path transform="translate(1227,1138)" d="m0 0h24l15 4 16 8 13 11 9 12 7 14 4 15v24l-4 15-9 17-11 12-8 7-16 8-13 4-6 1h-17l-14-3-13-5-11-7-12-11-7-10-7-15-3-10-1-8v-15l2-12 5-13 7-12 11-12 10-8 14-7z" fill="#FDFDFE"/>
<path transform="translate(1349,1139)" d="m0 0h41l23 2 15 5 13 8 12 11 7 10 6 12 4 13 1 7v12l-3 16-5 12-6 10-9 11-12 9-14 7-11 3-10 1h-53l-1-1v-147z" fill="#FDFDFE"/>
<path transform="translate(520,1139)" d="m0 0h56l16 1 13 4 9 6 8 9 5 13v16l-3 10-7 10-6 4-1 2 6 2 8 7 5 8 3 9v14l-2 9-5 9-4 5-11 7-9 3-8 1h-74v-148z" fill="#FDFDFE"/>
<path transform="translate(884,1140)" d="m0 0h40v27l-4 1h-23l-7 3-4 5-1 3v8l4 8 7 4 10 2h17l1-20 2-1h29l1 1v20h14l2 2v23l-2 2h-14v20l-5 15-7 10h-2v2l-12 8-12 4-5 1h-18l-15-4-11-6-10-10-5-10-2-7v-12l4-12 9-13-4-6-6-10-3-8v-17l4-12 6-9 8-7 9-4z" fill="#844DFD"/>
<path transform="translate(1059,1138)" d="m0 0h25l15 4 15 8 11 9 8 9 5 8-1 4-26 13-5-5-7-8-10-6-6-2-7-1h-11l-12 3-11 7-6 7-5 10-2 7v18l4 11 6 9 8 7 8 4 6 2h19l14-5 9-7 6-9 6 1 21 11 2 2-1 4-8 11-10 10-13 8-12 5-12 3h-18l-12-2-14-5-12-7-13-12-7-10-6-12-4-13-1-7v-17l3-14 5-12 6-10 11-12 10-8 14-7z" fill="#FDFCFE"/>
<path transform="translate(1505,1139)" d="m0 0h72l17 1v28l-1 1h-55v30h47l1 1v28l-47 1-1 30h55l1 1 1 27-1 1h-89l-1-1v-147z" fill="#FDFCFE"/>
<path transform="translate(721,1139)" d="m0 0h95l11 1v28l-1 1h-36v118l-1 1h-31l-2-7v-112h-36l-1-1v-28z" fill="#FBF9FE"/>
<path transform="translate(1233,1170)" d="m0 0h12l12 3 10 6 8 8 6 12 2 9v12l-3 12-7 11-9 8-11 5-4 1h-19l-10-3-10-7-8-9-5-11-1-4v-18l4-12 7-10 7-6 10-5z" fill="#18161E"/>
<path transform="translate(664,1139)" d="m0 0h31l2 2v146l-1 1h-32l-1-1v-147z" fill="#FCFBFE"/>
<path transform="translate(1381,1169)" d="m0 0h21l13 4 10 7 7 10 4 10 1 4v19l-3 10-6 10-5 6-10 6-8 3-7 1h-17l-1-2v-87z" fill="#18161E"/>
<path transform="translate(553,1227)" d="m0 0h29l9 2 5 5 3 8-2 9-4 5-4 2-8 1h-28l-1-2v-29z" fill="#18161E"/>
<path transform="translate(553,1169)" d="m0 0h29l8 4 3 5 1 7-3 9-6 5-4 1h-28l-1-1v-12z" fill="#18161E"/>
<path transform="translate(896,1228)" d="m0 0h27l1 1v13l-3 10-7 6-4 2h-12l-10-4-5-6v-11l4-6 6-4z" fill="#18161E"/>
</svg>
